<?xml version="1.0" encoding="UTF-8" standalone="no"?>
<svg width="24px" height="24px" viewBox="0 0 24 24" version="1.1" xmlns="http://www.w3.org/2000/svg" xmlns:xlink="http://www.w3.org/1999/xlink" xmlns:sketch="http://www.bohemiancoding.com/sketch/ns">
    <!-- Generator: Sketch 3.3.2 (12043) - http://www.bohemiancoding.com/sketch -->
    <title>add</title>
    <desc>Created with Sketch.</desc>
    <defs></defs>
    <g id="Iconset" stroke="none" stroke-width="1" fill="none" fill-rule="evenodd" sketch:type="MSPage">
        <g id="add" sketch:type="MSArtboardGroup" fill="#818181">
            <path d="M13,11 L13,6.50034732 C13,6.22900057 12.7740451,6 12.4953156,6 L11.5046844,6 C11.214035,6 11,6.22401312 11,6.50034732 L11,11 L6.50034732,11 C6.22900057,11 6,11.2259549 6,11.5046844 L6,12.4953156 C6,12.785965 6.22401312,13 6.50034732,13 L11,13 L11,17.4996527 C11,17.7709994 11.2259549,18 11.5046844,18 L12.4953156,18 C12.785965,18 13,17.7759869 13,17.4996527 L13,13 L17.4996527,13 C17.7709994,13 18,12.7740451 18,12.4953156 L18,11.5046844 C18,11.214035 17.7759869,11 17.4996527,11 L13,11 Z" id="Rectangle-19-Copy" sketch:type="MSShapeGroup"></path>
        </g>
    </g>
</svg>