<?xml version="1.0" encoding="UTF-8" standalone="no"?>
<svg width="30px" height="30px" viewBox="0 0 30 30" version="1.1" xmlns="http://www.w3.org/2000/svg" xmlns:xlink="http://www.w3.org/1999/xlink" xmlns:sketch="http://www.bohemiancoding.com/sketch/ns">
    <!-- Generator: Sketch 3.3.2 (12043) - http://www.bohemiancoding.com/sketch -->
    <title>icon_notification</title>
    <desc>Created with Sketch.</desc>
    <defs></defs>
    <g id="Iconset" stroke="none" stroke-width="1" fill="none" fill-rule="evenodd" sketch:type="MSPage">
        <g id="icon_notification" sketch:type="MSArtboardGroup">
            <g id="Path-51-+-Path-51-Copy" sketch:type="MSLayerGroup" transform="translate(9.000000, 8.000000)">
                <path d="M6,2 C3.46850197,2.00000001 1.98167455,3.97701834 2,5 C2.07165504,9 1.11631952,9.90627692 0,12 L6,12" id="Path-51" stroke="#818181" stroke-width="1.5" sketch:type="MSShapeGroup"></path>
                <path d="M12,2 C9.46850197,2.00000001 8.06347656,3.93977674 8.06347656,5.11450195 C8.06347656,9 7.11631952,9.90627692 6,12 L12,12" id="Path-51-Copy" stroke="#818181" stroke-width="1.5" sketch:type="MSShapeGroup" transform="translate(9.000000, 7.000000) scale(-1, 1) translate(-9.000000, -7.000000) "></path>
                <rect id="Rectangle-24" fill="#818181" sketch:type="MSShapeGroup" x="5" y="0" width="2" height="2.5" rx="1"></rect>
                <path d="M6.0144043,14.7929687 C7.1189738,14.7929687 8.0189209,13.7925578 8.0189209,12.6879883 C8.0189209,11.5834188 4.0098877,11.5834188 4.0098877,12.6879883 C4.0098877,13.7925578 4.9098348,14.7929687 6.0144043,14.7929687 Z" id="Oval-12" stroke="#818181" sketch:type="MSShapeGroup"></path>
            </g>
        </g>
    </g>
</svg>