<?xml version="1.0" encoding="UTF-8" standalone="no"?>
<svg width="30px" height="30px" viewBox="0 0 30 30" version="1.1" xmlns="http://www.w3.org/2000/svg" xmlns:xlink="http://www.w3.org/1999/xlink" xmlns:sketch="http://www.bohemiancoding.com/sketch/ns">
    <!-- Generator: Sketch 3.3.2 (12043) - http://www.bohemiancoding.com/sketch -->
    <title>icon_sidebar</title>
    <desc>Created with Sketch.</desc>
    <defs></defs>
    <g id="Iconset" stroke="none" stroke-width="1" fill="none" fill-rule="evenodd" sketch:type="MSPage">
        <g id="icon_sidebar" sketch:type="MSArtboardGroup" fill="#27b3fc">
            <path d="M13,19.5 C13,19.2238576 13.2224731,19 13.5096658,19 L21.4903342,19 C21.7718148,19 22,19.2319336 22,19.5 C22,19.7761424 21.7775269,20 21.4903342,20 L13.5096658,20 C13.2281852,20 13,19.7680664 13,19.5 Z M13,14.5 C13,14.2238576 13.2224731,14 13.5096658,14 L21.4903342,14 C21.7718148,14 22,14.2319336 22,14.5 C22,14.7761424 21.7775269,15 21.4903342,15 L13.5096658,15 C13.2281852,15 13,14.7680664 13,14.5 Z M13,9.5 C13,9.22385763 13.2224731,9 13.5096658,9 L21.4903342,9 C21.7718148,9 22,9.23193359 22,9.5 C22,9.77614237 21.7775269,10 21.4903342,10 L13.5096658,10 C13.2281852,10 13,9.76806641 13,9.5 Z M9.5,21 C10.3284271,21 11,20.3284271 11,19.5 C11,18.6715729 10.3284271,18 9.5,18 C8.67157288,18 8,18.6715729 8,19.5 C8,20.3284271 8.67157288,21 9.5,21 Z M9.5,16 C10.3284271,16 11,15.3284271 11,14.5 C11,13.6715729 10.3284271,13 9.5,13 C8.67157288,13 8,13.6715729 8,14.5 C8,15.3284271 8.67157288,16 9.5,16 Z M9.5,11 C10.3284271,11 11,10.3284271 11,9.5 C11,8.67157288 10.3284271,8 9.5,8 C8.67157288,8 8,8.67157288 8,9.5 C8,10.3284271 8.67157288,11 9.5,11 Z" id="Rectangle-21-Copy-2" sketch:type="MSShapeGroup"></path>
        </g>
    </g>
</svg>