<?xml version="1.0" encoding="UTF-8" standalone="no"?>
<svg width="30px" height="30px" viewBox="0 0 30 30" version="1.1" xmlns="http://www.w3.org/2000/svg" xmlns:xlink="http://www.w3.org/1999/xlink" xmlns:sketch="http://www.bohemiancoding.com/sketch/ns">
    <!-- Generator: Sketch 3.3.2 (12043) - http://www.bohemiancoding.com/sketch -->
    <title>icon_add_menu</title>
    <desc>Created with Sketch.</desc>
    <defs></defs>
    <g id="Iconset" stroke="none" stroke-width="1" fill="none" fill-rule="evenodd" sketch:type="MSPage">
        <g id="icon_add_menu" sketch:type="MSArtboardGroup">
            <polygon id="Triangle-1" fill="#BEBEBE" sketch:type="MSShapeGroup" transform="translate(24.000000, 17.000000) scale(1, -1) translate(-24.000000, -17.000000) " points="24 15 27 19 21 19 "></polygon>
            <path d="M10,14 L10,9.50034732 C10,9.22900057 9.77404508,9 9.49531555,9 L8.50468445,9 C8.21403503,9 8,9.22401312 8,9.50034732 L8,14 L3.50034732,14 C3.22900057,14 3,14.2259549 3,14.5046844 L3,15.4953156 C3,15.785965 3.22401312,16 3.50034732,16 L8,16 L8,20.4996527 C8,20.7709994 8.22595492,21 8.50468445,21 L9.49531555,21 C9.78596497,21 10,20.7759869 10,20.4996527 L10,16 L14.4996527,16 C14.7709994,16 15,15.7740451 15,15.4953156 L15,14.5046844 C15,14.214035 14.7759869,14 14.4996527,14 L10,14 Z" id="Rectangle-19-Copy" fill="#818181" sketch:type="MSShapeGroup"></path>
        </g>
    </g>
</svg>