<?xml version="1.0" encoding="UTF-8" standalone="no"?>
<svg width="30px" height="30px" viewBox="0 0 30 30" version="1.1" xmlns="http://www.w3.org/2000/svg" xmlns:xlink="http://www.w3.org/1999/xlink" xmlns:sketch="http://www.bohemiancoding.com/sketch/ns">
    <!-- Generator: Sketch 3.3.2 (12043) - http://www.bohemiancoding.com/sketch -->
    <title>icon_info</title>
    <desc>Created with Sketch.</desc>
    <defs></defs>
    <g id="Iconset" stroke="none" stroke-width="1" fill="none" fill-rule="evenodd" sketch:type="MSPage">
        <g id="icon_info" sketch:type="MSArtboardGroup" fill="#24a2fb">
            <path d="M15,23 C19.418278,23 23,19.418278 23,15 C23,10.581722 19.418278,7 15,7 C10.581722,7 7,10.581722 7,15 C7,19.418278 10.581722,23 15,23 Z M15,12.5 C15.8284271,12.5 16.5,11.8284271 16.5,11 C16.5,10.1715729 15.8284271,9.5 15,9.5 C14.1715729,9.5 13.5,10.1715729 13.5,11 C13.5,11.8284271 14.1715729,12.5 15,12.5 Z M14,14.990778 C14,14.4435864 14.4438648,14 15,14 C15.5522847,14 16,14.4509752 16,14.990778 L16,19.009222 C16,19.5564136 15.5561352,20 15,20 C14.4477153,20 14,19.5490248 14,19.009222 L14,14.990778 Z" id="Oval-16" sketch:type="MSShapeGroup"></path>
        </g>
    </g>
</svg>