<?xml version="1.0" encoding="UTF-8" standalone="no"?>
<svg width="24px" height="24px" viewBox="0 0 24 24" version="1.1" xmlns="http://www.w3.org/2000/svg" xmlns:xlink="http://www.w3.org/1999/xlink" xmlns:sketch="http://www.bohemiancoding.com/sketch/ns">
    <!-- Generator: Sketch 3.3.2 (12043) - http://www.bohemiancoding.com/sketch -->
    <title>view_grid</title>
    <desc>Created with Sketch.</desc>
    <defs></defs>
    <g id="Iconset" stroke="none" stroke-width="1" fill="none" fill-rule="evenodd" sketch:type="MSPage">
        <g id="view_grid" sketch:type="MSArtboardGroup" stroke="#818181">
            <path d="M13.5,14.5093689 C13.5,13.9519098 13.9433532,13.5 14.5093689,13.5 L16.4906311,13.5 C17.0480902,13.5 17.5,13.9433532 17.5,14.5093689 L17.5,16.4906311 C17.5,17.0480902 17.0566468,17.5 16.4906311,17.5 L14.5093689,17.5 C13.9519098,17.5 13.5,17.0566468 13.5,16.4906311 L13.5,14.5093689 Z M6.5,14.5093689 C6.5,13.9519098 6.94335318,13.5 7.5093689,13.5 L9.4906311,13.5 C10.0480902,13.5 10.5,13.9433532 10.5,14.5093689 L10.5,16.4906311 C10.5,17.0480902 10.0566468,17.5 9.4906311,17.5 L7.5093689,17.5 C6.95190985,17.5 6.5,17.0566468 6.5,16.4906311 L6.5,14.5093689 Z M13.5,7.5093689 C13.5,6.95190985 13.9433532,6.5 14.5093689,6.5 L16.4906311,6.5 C17.0480902,6.5 17.5,6.94335318 17.5,7.5093689 L17.5,9.4906311 C17.5,10.0480902 17.0566468,10.5 16.4906311,10.5 L14.5093689,10.5 C13.9519098,10.5 13.5,10.0566468 13.5,9.4906311 L13.5,7.5093689 Z M6.5,7.5093689 C6.5,6.95190985 6.94335318,6.5 7.5093689,6.5 L9.4906311,6.5 C10.0480902,6.5 10.5,6.94335318 10.5,7.5093689 L10.5,9.4906311 C10.5,10.0480902 10.0566468,10.5 9.4906311,10.5 L7.5093689,10.5 C6.95190985,10.5 6.5,10.0566468 6.5,9.4906311 L6.5,7.5093689 Z" id="Rectangle-15-Copy-2" sketch:type="MSShapeGroup"></path>
        </g>
    </g>
</svg>