<?xml version="1.0" encoding="UTF-8" standalone="no"?>
<svg width="90px" height="90px" viewBox="0 0 90 90" version="1.1" xmlns="http://www.w3.org/2000/svg" xmlns:xlink="http://www.w3.org/1999/xlink" xmlns:sketch="http://www.bohemiancoding.com/sketch/ns">
    <!-- Generator: Sketch 3.2.2 (9983) - http://www.bohemiancoding.com/sketch -->
    <title>icon_crane</title>
    <desc>Created with Sketch.</desc>
    <defs></defs>
    <g id="Splash-Screen" stroke="none" stroke-width="1" fill="none" fill-rule="evenodd" sketch:type="MSPage">
        <g id="icon_crane" sketch:type="MSArtboardGroup">
            <path d="M45,90 C69.8528137,90 90,69.8528137 90,45 C90,20.1471863 69.8528137,0 45,0 C20.1471863,0 0,20.1471863 0,45 C0,69.8528137 20.1471863,90 45,90 Z" id="Oval-6" fill="#F4F4F4" sketch:type="MSShapeGroup"></path>
            <path d="M44.5073241,0 L44.5073241,28.4020996 C45.6635698,28.444691 47.5151538,29.5629883 47.5146484,31.244873 C47.5141429,32.9267578 46.6027831,33.953578 44.8728027,33.9991579 C43.1428222,34.0447378 42.19458,32.2244997 42.19458,32.2244997" id="arrow" stroke="#000000" sketch:type="MSShapeGroup"></path>
            <g id="Line-+-Line-2" sketch:type="MSLayerGroup" transform="translate(40.000000, 33.000000)" stroke="#000000" stroke-linecap="square">
                <path d="M0,9.5 L3.50378704,0.996212989" id="Line" sketch:type="MSShapeGroup"></path>
                <path d="M6.24632618,10.7536736 L11,1" id="Line" sketch:type="MSShapeGroup" transform="translate(8.500000, 6.000000) scale(1, -1) translate(-8.500000, -6.000000) "></path>
            </g>
            <rect id="box-2" fill="#42E1FF" sketch:type="MSShapeGroup" transform="translate(45.000000, 51.500000) rotate(4.000000) translate(-45.000000, -51.500000) " x="38.5" y="41.4999998" width="13" height="20"></rect>
        </g>
    </g>
</svg>